# Made in Blockbench 4.12.1
mtllib Cube.mtl

o cuboid
v 0.5 0.5 -0.5
v 0.5 0.5 0.5
v 0.5 -0.5 0.5
v 0.5 -0.5 -0.5
v -0.5 -0.5 0.5
v -0.5 0.5 0.5
v -0.5 0.5 -0.5
v -0.5 -0.5 -0.5
vt 1 1
vt 0 1
vt 0 0
vt 1 0
vt 1 0
vt 1 1
vt 0 1
vt 0 0
vt 0 0
vt 1 0
vt 1 1
vt 0 1
vt 1 0
vt 1 1
vt 0 1
vt 0 0
vt 1 0
vt 1 1
vt 0 1
vt 0 0
vt 1 1
vt 0 1
vt 0 0
vt 1 0
vn 1 0 0
vn -1 0 0
vn 0 1 0
vn 0 -1 0
vn 0 0 1
vn 0 0 -1
usemtl none
f 1/1/1 2/2/1 3/3/1 4/4/1
f 5/5/2 6/6/2 7/7/2 8/8/2
f 6/9/3 2/10/3 1/11/3 7/12/3
f 4/13/4 3/14/4 5/15/4 8/16/4
f 3/17/5 2/18/5 6/19/5 5/20/5
f 7/21/6 1/22/6 4/23/6 8/24/6